<svg id="crossed-swords" xmlns="http://www.w3.org/2000/svg" width="20" height="20" viewBox="0 0 30 30">
  <path id="Path_2" data-name="Path 2" d="M19.75,14.437c3.785,7.189,9.06,12.955,14.767,18.74l.231.24,0,0c1.388,1.4,2.8,2.812,4.222,4.241a32.38,32.38,0,0,1-3.811,2.581l1.814,1.827,4.369-4.4a23.054,23.054,0,0,1,6.618,6.774l1.784-1.8a20.75,20.75,0,0,1-6.741-6.65l4.383-4.414L45.576,29.75a22,22,0,0,1-2.509,3.879c-2.788-2.8-5.5-5.5-8.273-8.033l-.042-.04a80.486,80.486,0,0,0-15-11.12Zm30,0A78.685,78.685,0,0,0,35.638,24.755l1.45,1.38L40.7,22.5l.84.844-3.588,3.613,1.564,1.484a66.765,66.765,0,0,0,10.234-14ZM28.8,22.5,41.551,35.336q-.416.427-.852.834L27.959,23.342ZM23.924,29.75l-1.812,1.827,4.381,4.411a20.748,20.748,0,0,1-6.739,6.652l1.784,1.8a23.054,23.054,0,0,1,6.618-6.774l4.369,4.4,1.814-1.827a32.4,32.4,0,0,1-3.811-2.581q1.7-1.712,3.38-3.391l-1.579-1.642L28.8,36.172c-.29-.271-.573-.552-.85-.836l3.55-3.575-1.56-1.624c-1.162,1.143-2.327,2.309-3.507,3.5a21.992,21.992,0,0,1-2.511-3.881Z" transform="translate(-19.75 -14.437)" fill="#f5f5f5"/>
</svg>
