<svg id="circle-claws" xmlns="http://www.w3.org/2000/svg" width="20" height="20" viewBox="0 0 30 30">
  <path id="Path_1" data-name="Path 1" d="M36.824,24.164a13.009,13.009,0,0,0-10.32,5,13.313,13.313,0,0,0,2.112,18.573c.089.071.18.142.272.211l.055.059-.022-.034c.323.241.661.47.989.675a13.17,13.17,0,0,1-2.347-3.258c-1.663-4.144-.972-8.337,2.1-10.4,3.729-2.5,9.644-.979,13.725,3.332-.252-.381-.537-.781-.831-1.15C38.5,32.067,31.943,30.109,27.923,32.8c-.068.046-.135.093-.2.141a13.275,13.275,0,0,1,1.21-1.832A13,13,0,0,1,46.057,28.1a13.774,13.774,0,0,0-1.172-1.067,12.943,12.943,0,0,0-8.062-2.866Zm10.25,5.305a13.327,13.327,0,0,1,4.077,10.4,9.571,9.571,0,0,1-2.818,5.17,10.623,10.623,0,0,1-13.725.6A10.636,10.636,0,0,0,47.04,48.723a13,13,0,0,1-15.474,1.795,13.8,13.8,0,0,0,1.2,1.029,13,13,0,0,0,18.307-2.71,13.31,13.31,0,0,0-2.682-18.5,13.69,13.69,0,0,0-1.321-.87Z" transform="translate(-23.667 -24.164)" fill="#f5f5f5"/>
</svg>
